PathFileType	4	(X/Y/Z)	Patient4_TMGait_0pt6_01_left_45.trc.trc
DataRate	CameraRate	NumFrames	NumMarkers	Units	OrigDataRate	OrigDataStartFrame	OrigNumFrames
77.348066298342	77.348066298342	4	33	mm	77.348066298342	89	       141
Frame#	Time	Sacral			L.Shoulder			Chest			R.Shoulder			Neck			R.ASIS			L.ASIS			R.Thigh.Superior			R.Thigh.Lateral			R.Thigh.Inferior			R.Patella			L.Thigh.Superior			L.Thigh.Lateral			L.Thigh.Inferior			L.Patella			L.Shank.Superior			L.Shank.Lateral			L.Shank.Inferior			R.Shank.Superior			R.Shank.Lateral			R.Shank.Inferior			R.Heel			R.Midfoot.Superior			R.Midfoot.Lateral			R.Toe			L.Heel			L.Midfoot.Lateral			L.Midfoot.Superior			L.Toe			L.Elbow			L.Wrist			R.Elbow			R.Wrist			
		X1	Y1	Z1	X2	Y2	Z2	X3	Y3	Z3	X4	Y4	Z4	X5	Y5	Z5	X6	Y6	Z6	X7	Y7	Z7	X8	Y8	Z8	X9	Y9	Z9	X10	Y10	Z10	X11	Y11	Z11	X12	Y12	Z12	X13	Y13	Z13	X14	Y14	Z14	X15	Y15	Z15	X16	Y16	Z16	X17	Y17	Z17	X18	Y18	Z18	X19	Y19	Z19	X20	Y20	Z20	X21	Y21	Z21	X22	Y22	Z22	X23	Y23	Z23	X24	Y24	Z24	X25	Y25	Z25	X26	Y26	Z26	X27	Y27	Z27	X28	Y28	Z28	X29	Y29	Z29	X30	Y30	Z30	X31	Y31	Z31	X32	Y32	Z32	X33	Y33	Z33	

89	55.827714285714	821.160421774831	1001.177564459628	472.017162921519	975.874428809532	1435.076175726876	284.661269989057	1082.594761141398	1372.444315429121	444.772239468879	994.965390135396	1441.250146689367	617.749193740521	952.309927813300	1493.245122441525	437.905981423898	1050.570483360870	943.441791444660	584.219216163121	1034.166248364367	963.799153010107	309.985841727762	1107.316260987698	748.854911120467	554.302522230663	1032.254038908359	632.964118587779	609.620891299465	1115.420078439542	588.814339868622	530.413749196583	1122.788540729016	499.718576160359	534.648495413061	1058.139406308232	736.239659309132	324.324665490669	957.807913370873	629.437153780680	262.714435221388	1042.140523340422	537.645696371239	311.665935310454	1027.623477386514	452.435965678171	306.788094684290	954.549829850693	399.632026398349	306.788313111207	808.603090921387	365.072988500279	268.578436570232	792.299006283324	237.327714945717	326.546123705631	1100.597776350855	409.980484689418	538.600284609045	1034.164399339548	299.096806861404	591.955960613254	1087.560203958717	210.074131513895	529.176366714662	966.221536257895	41.900078977950	487.091782042900	1135.921381862675	97.633828663055	528.540175727038	1047.228747351852	36.628311969332	564.557650426095	1255.569455443391	44.706920833616	559.537764514190	600.384684978590	184.834592351136	376.374497522615	650.344771456879	125.839060304450	300.708329824267	756.239605209463	132.111775634108	314.606892957539	828.036445359410	30.681922029032	301.388474808446	1009.338688053139	1084.912613659637	161.900252030124	1233.652744786781	956.320919731846	183.888784976611	928.423952814176	1098.885384410065	736.705909077230	1010.311849683276	850.936975022598	735.541177544778	
90	55.840642857143	822.353948281485	1001.769099351413	475.162393520817	974.536698997393	1435.945251708826	287.240936814361	1082.986155806549	1373.526376679518	446.379845765737	996.853972384132	1441.876725724826	620.266297341917	952.405770020201	1493.969486192108	441.032842292329	1052.192305093335	944.315889897209	585.857108526363	1034.688770325356	964.631030865574	311.928146647197	1106.365930862391	748.088399537337	557.738840283286	1029.110457310617	633.317195167545	612.235908139215	1112.145802270741	588.149479048576	533.464836196067	1118.234854717225	499.117595972062	537.593202294671	1064.573232617127	739.142755750036	325.537055834335	968.404829507244	630.130511341233	262.775868415090	1055.629444033169	540.097936435414	311.367891237327	1042.440489782794	453.742198915577	305.864076576534	967.739910892181	400.991526421426	306.144968605048	820.585546783065	371.278959307789	268.028562811203	800.161456209017	244.203705691827	326.105977392393	1095.437808241657	409.612503167135	540.901099750494	1027.903190322282	299.024370265533	593.457293635189	1081.033983446779	209.897594827895	530.516711034347	958.566456293059	42.066893629313	487.301244677163	1128.548471368950	97.531994621364	529.018299534644	1039.553196643935	36.583480353563	564.720513964233	1248.021516078860	43.940060420315	559.801758984702	606.835362524697	200.715614902484	376.249052083002	653.629843372047	139.172784828607	300.284919444037	760.089232831259	139.716473049217	313.882980836317	825.700016770813	31.096660056917	299.886816969709	1006.023825422030	1084.664167087459	166.059454691487	1222.221144496641	941.485899654622	186.543215273526	937.263903624323	1098.273477412788	740.390365049565	1034.922245207586	856.038307742667	737.376104787439	
91	55.853571428571	823.267010623236	1002.372854467214	478.003371283588	973.063922144176	1436.813314350575	289.761238792471	1083.231634487861	1374.482065208312	447.879859610025	998.680459320795	1442.341971206038	622.728551444215	952.473768275646	1494.676771344373	444.111348822683	1053.468470664523	945.178244171439	587.299880908126	1034.739153805654	965.265587345516	313.668221106181	1105.111448976620	747.473052011399	560.850063830208	1025.863195684735	633.742152898314	614.641065994349	1108.712183268558	587.620152811396	536.263398302943	1113.531734044340	498.650443889914	540.346292518398	1070.731301790891	742.364233716395	326.880507835473	978.825497328115	631.298536117323	262.733614535253	1068.771348727237	543.176993948482	311.109232678252	1057.099550916942	455.749844281460	305.008150829301	981.099432963749	402.853786796922	305.503519839674	832.958349834894	377.347307741233	267.628083323708	809.039989065144	250.939276935890	325.863555119846	1090.192268114024	409.352436011899	543.051318588418	1021.569371674282	299.085465308666	594.870430459977	1074.469519116555	209.830691548763	531.817598673155	950.891495610807	42.342722782594	487.544856032049	1121.196943570494	97.452937375792	529.504593057698	1031.870516573870	36.565258964299	564.887212301855	1240.454542585743	43.157894467907	560.049979376776	614.867900523593	214.975034384875	376.671491579121	658.772113442268	151.760377669740	300.098131259910	765.561689409005	147.465250884879	313.248828668956	825.750990757807	32.360947953764	297.850717427699	1002.262288163058	1084.384523827768	170.148854777083	1209.323294125027	927.160154883782	189.157390349474	946.541119098023	1097.594312378211	743.879612362958	1059.688235655182	862.188226326106	738.884959521289	
92	55.866500000000	823.894106923418	1003.036118573648	480.506662494103	971.525363318122	1437.737291361649	292.213122235291	1083.321168832880	1375.365295813740	449.301545881041	1000.355796336248	1442.711105483625	625.116819455693	952.504323426135	1495.420439796594	447.094664158517	1054.394564285408	946.073790542441	588.583427160409	1034.372402184737	965.783413288678	315.227441139723	1103.592694966195	747.053078230897	563.562556878223	1022.581379143839	634.252705154402	616.776305692182	1105.195817924106	587.251833751730	538.755225236617	1108.767650425363	498.334787795932	542.833334202669	1076.506707514632	745.932605423865	328.328099008503	988.864800769877	632.988181548866	262.604486081058	1081.389917301976	546.907767685670	310.804192906536	1071.426065293354	458.495716995078	304.093564831692	994.482781906816	405.235183974856	304.773777553762	845.537217909086	383.116801003019	267.367305090297	818.953822367313	257.268420755591	325.734821759244	1084.927282439642	409.215227396940	544.998705869083	1015.215061713998	299.310160806143	596.159249474857	1067.888197164495	209.883658589636	533.048427830816	943.204563710037	42.749726719925	487.820599868396	1113.863469059792	97.415160277904	530.000091788955	1024.193107584658	36.586694824260	565.057319644261	1232.866358478809	42.406535861002	560.283425009384	624.414349683963	226.965700035570	377.583699914852	665.859764850612	162.973879014620	300.107334632334	772.817176545461	154.946547720015	312.638218289359	828.651300964960	34.477986675353	295.283738300940	997.950963998015	1084.153376923817	174.152994965688	1194.949901889859	913.599067465015	191.724618414900	956.323107336215	1096.895658183933	747.103338045055	1084.497481469779	869.408076607568	739.994960548937	
